<?xml version="1.0" standalone="no"?>
<!DOCTYPE svg PUBLIC "-//W3C//DTD SVG 1.1//EN"
 "http://www.w3.org/Graphics/SVG/1.1/DTD/svg11.dtd">

<svg version="1.1" xmlns="http://www.w3.org/2000/svg"
  xmlns:xlink="http://www.w3.org/1999/xlink">
<!-- automatically generated by aafigure -->
<g>
    <line x1="207.20000000000002" y1="22.400000000000002" x2="210.00000000000003" y2="30.800000000000004" stroke="#000000" stroke-width="2.0" />
    <line x1="207.20000000000002" y1="22.400000000000002" x2="204.4" y2="30.800000000000004" stroke="#000000" stroke-width="2.0" />
    <line x1="207.20000000000002" y1="67.2" x2="204.4" y2="58.800000000000004" stroke="#000000" stroke-width="2.0" />
    <line x1="207.20000000000002" y1="67.2" x2="210.00000000000003" y2="58.800000000000004" stroke="#000000" stroke-width="2.0" />
    <line x1="207.20000000000002" y1="22.400000000000002" x2="207.20000000000002" y2="67.2" stroke="#000000" stroke-width="2.0" />
</g>
<line x1="140.0" y1="72.80000000000001" x2="274.40000000000003" y2="72.80000000000001" stroke="#000000" stroke-width="2.0" />
<line x1="140.0" y1="72.80000000000001" x2="140.0" y2="140.0" stroke="#000000" stroke-width="2.0" />
<line x1="274.40000000000003" y1="72.80000000000001" x2="274.40000000000003" y2="140.0" stroke="#000000" stroke-width="2.0" />
<line x1="140.0" y1="140.0" x2="274.40000000000003" y2="140.0" stroke="#000000" stroke-width="2.0" />
<g>
    <line x1="207.20000000000002" y1="145.60000000000002" x2="210.00000000000003" y2="154.00000000000003" stroke="#000000" stroke-width="2.0" />
    <line x1="207.20000000000002" y1="145.60000000000002" x2="204.4" y2="154.00000000000003" stroke="#000000" stroke-width="2.0" />
    <line x1="207.20000000000002" y1="224.00000000000003" x2="204.4" y2="215.60000000000002" stroke="#000000" stroke-width="2.0" />
    <line x1="207.20000000000002" y1="224.00000000000003" x2="210.00000000000003" y2="215.60000000000002" stroke="#000000" stroke-width="2.0" />
    <line x1="207.20000000000002" y1="145.60000000000002" x2="207.20000000000002" y2="224.00000000000003" stroke="#000000" stroke-width="2.0" />
</g>
<line x1="140.0" y1="229.60000000000002" x2="274.40000000000003" y2="229.60000000000002" stroke="#000000" stroke-width="2.0" />
<line x1="140.0" y1="229.60000000000002" x2="140.0" y2="296.8" stroke="#000000" stroke-width="2.0" />
<line x1="274.40000000000003" y1="229.60000000000002" x2="274.40000000000003" y2="296.8" stroke="#000000" stroke-width="2.0" />
<line x1="140.0" y1="296.8" x2="274.40000000000003" y2="296.8" stroke="#000000" stroke-width="2.0" />
<g>
    <line x1="207.20000000000002" y1="302.40000000000003" x2="210.00000000000003" y2="310.8" stroke="#000000" stroke-width="2.0" />
    <line x1="207.20000000000002" y1="302.40000000000003" x2="204.4" y2="310.8" stroke="#000000" stroke-width="2.0" />
    <line x1="207.20000000000002" y1="369.6" x2="204.4" y2="361.20000000000005" stroke="#000000" stroke-width="2.0" />
    <line x1="207.20000000000002" y1="369.6" x2="210.00000000000003" y2="361.20000000000005" stroke="#000000" stroke-width="2.0" />
    <line x1="207.20000000000002" y1="302.40000000000003" x2="207.20000000000002" y2="369.6" stroke="#000000" stroke-width="2.0" />
</g>
<line x1="140.0" y1="375.20000000000005" x2="274.40000000000003" y2="375.20000000000005" stroke="#000000" stroke-width="2.0" />
<line x1="140.0" y1="375.20000000000005" x2="140.0" y2="442.40000000000003" stroke="#000000" stroke-width="2.0" />
<line x1="274.40000000000003" y1="375.20000000000005" x2="274.40000000000003" y2="442.40000000000003" stroke="#000000" stroke-width="2.0" />
<line x1="140.0" y1="442.40000000000003" x2="274.40000000000003" y2="442.40000000000003" stroke="#000000" stroke-width="2.0" />
<g>
    <line x1="207.20000000000002" y1="448.00000000000006" x2="210.00000000000003" y2="456.40000000000003" stroke="#000000" stroke-width="2.0" />
    <line x1="207.20000000000002" y1="448.00000000000006" x2="204.4" y2="456.40000000000003" stroke="#000000" stroke-width="2.0" />
    <line x1="207.20000000000002" y1="492.80000000000007" x2="204.4" y2="484.40000000000003" stroke="#000000" stroke-width="2.0" />
    <line x1="207.20000000000002" y1="492.80000000000007" x2="210.00000000000003" y2="484.40000000000003" stroke="#000000" stroke-width="2.0" />
    <line x1="207.20000000000002" y1="448.00000000000006" x2="207.20000000000002" y2="492.80000000000007" stroke="#000000" stroke-width="2.0" />
</g>
<text x="190.4" y="9.520000000000001" font-family="sans-serif" font-size="11.200000000000001" fill="#000000" >
 user
</text><text x="179.20000000000002" y="87.92" font-family="sans-serif" font-size="11.200000000000001" fill="#000000" >
 GUI
</text><text x="156.8" y="110.32000000000001" font-family="sans-serif" font-size="11.200000000000001" fill="#000000" >
 (frontend)
</text><text x="145.60000000000002" y="132.72" font-family="sans-serif" font-size="11.200000000000001" fill="#000000" >
 web browser
</text><text x="257.6" y="188.72000000000003" font-family="sans-serif" font-size="11.200000000000001" fill="#000000" >
 HTTP
</text><text x="168.00000000000003" y="244.72000000000003" font-family="sans-serif" font-size="11.200000000000001" fill="#000000" >
 service
</text><text x="156.8" y="267.12000000000006" font-family="sans-serif" font-size="11.200000000000001" fill="#000000" >
 (backend)
</text><text x="190.4" y="289.52000000000004" font-family="sans-serif" font-size="11.200000000000001" fill="#000000" >
 BBB
</text><text x="257.6" y="334.32000000000005" font-family="sans-serif" font-size="11.200000000000001" fill="#000000" >
 serial line
</text><text x="145.60000000000002" y="390.32000000000005" font-family="sans-serif" font-size="11.200000000000001" fill="#000000" >
 CNC manager
</text><text x="156.8" y="412.72" font-family="sans-serif" font-size="11.200000000000001" fill="#000000" >
 (firmware)
</text><text x="179.20000000000002" y="435.12000000000006" font-family="sans-serif" font-size="11.200000000000001" fill="#000000" >
 ATmega
</text><text x="156.8" y="513.5200000000001" font-family="sans-serif" font-size="11.200000000000001" fill="#000000" >
 lasersaur
</text></svg>
